<?xml version="1.0" encoding="utf-8"?>
<!-- Svg Vector Icons : http://www.onlinewebfonts.com/icon -->
<!DOCTYPE svg PUBLIC "-//W3C//DTD SVG 1.1//EN" "http://www.w3.org/Graphics/SVG/1.1/DTD/svg11.dtd">
<svg version="1.1" xmlns="http://www.w3.org/2000/svg" xmlns:xlink="http://www.w3.org/1999/xlink" x="0px" y="0px" viewBox="0 0 256 256" enable-background="new 0 0 256 256" xml:space="preserve">
<metadata> Svg Vector Icons : http://www.onlinewebfonts.com/icon </metadata>
<g><g><g><path fill="#000000" d="M117.7,111.3c-2.8,0-4.7,0.4-5.6,0.6v17.3c1.2,0.3,2.6,0.4,4.5,0.4c7.3,0,11.9-3.6,11.9-9.7C128.6,114.4,124.6,111.1,117.7,111.3z"/><path fill="#000000" d="M230.3,25.8H156c-0.3,0-0.7,0-1,0.1V5.3L10,24.7v206.2l145,19.9v-21.2c0.3,0,0.7,0.1,1,0.1h74.3c8.7,0,15.7-7.1,15.7-15.7V41.6C246,32.9,238.9,25.8,230.3,25.8z M46.4,137.6c0,15.1-6.6,20.1-17,19.6c-2.4-0.1-5.5-0.8-7.6-1.6l1.2-9.3c1.4,0.6,3.3,1,5.3,1.1c4.4,0.2,7.2-2,7.2-10.1v-32.9l10.9-0.4V137.6L46.4,137.6z M68.4,159.1c-6-0.3-11.7-2.2-14.5-4l2.3-10c3.1,1.8,7.9,3.7,12.9,3.8c5.5,0.2,8.5-2.1,8.5-5.7c0-3.5-2.6-5.5-8.9-8c-8.6-3.3-14.1-8.3-14.1-16.1c0-9.2,7.3-16.5,19.6-16.9c6.1-0.2,10.6,1,13.9,2.4l-2.8,10.4c-2.2-1.1-6.1-2.6-11.4-2.5c-5.2,0.1-7.7,2.6-7.7,5.4c0,3.5,3,5,9.8,7.7c9.6,3.7,14.2,9,14.2,17C90.3,152.1,83.1,159.8,68.4,159.1z M136.9,133.9c-4.9,4.3-12,6.2-20.2,6c-1.8,0-3.4-0.2-4.6-0.4v21L99,159.8V103c4-0.8,9.8-1.5,18-1.8c8.5-0.3,14.7,1.1,19,4.2c4.1,3,6.9,8,6.9,14C142.8,125.4,140.7,130.5,136.9,133.9z M237,213.8c0,3.7-3,6.8-6.8,6.8H156c-0.3,0-0.7-0.1-1-0.1v-55.1c5.1,0.7,12.1,1.1,21.8,1.1c26.9,0,38.7-4.9,40.6-7c1.9-2.1-0.6-3.7-0.6-3.7s0.9,1.1-0.3,2.3c-1.2,1.2-12.1,4.2-29.6,5.1c-12.1,0.6-25-0.4-31.9-1.9v-5c2.3-0.7,4.6-1,4.6-1c-0.4,0-2.3,0.1-4.6,0.3V131c3.9,1.9,11.9,3,24.1,2.6c21.3-0.8,23.8-4.8,26-6.7c-12.3,3.4-45,3.1-45.3,0.7c-0.2-2.5,10.1-4.5,10.1-4.5s-10,0-14.9,2V34.9c0.3-0.1,0.7-0.1,1-0.1h74.3c3.7,0,6.8,3,6.8,6.8V213.8L237,213.8z"/><path fill="#000000" d="M194.7,80.7c5.4-8.7-0.7-17.3-0.7-17.3s1.4,6.3-2.2,12.8c-3.6,6.5-16.8,10.3-22,21.5c-5.1,11.2,11.4,24,11.4,24s-6.1-11.7-5.8-20.2C175.6,95.4,189.4,89.4,194.7,80.7z"/><path fill="#000000" d="M203.9,86.3c0,0-20.6,7.8-20.6,16.8c0,9,5.6,11.9,6.5,14.8s-1.6,7.8-1.6,7.8s8.1-5.6,6.7-12.1c-1.4-6.5-7.6-8.5-4-15C193.3,94.3,203.9,86.3,203.9,86.3z"/><path fill="#000000" d="M208.2,123.5c0,0,9.2,0,10.1,5.6c0.9,5.6-11.6,13.9-11.6,13.9s19.8-4,17.9-14.1C222.3,116.6,208.2,123.5,208.2,123.5z"/><path fill="#000000" d="M164.3,138.3c-0.9-1.6,1.6-2.5,1.6-2.5c-11.2,2.7-5.1,7.4,8,8.3c11.3,0.8,23.8-3.4,23.8-3.4l3.9-3.1c0,0-8.9,1.2-15.8,2C176.4,140.7,165.2,139.8,164.3,138.3z"/><path fill="#000000" d="M168.1,149c-0.4-1.1,0.5-1.6,0.5-1.6s-5.1,0.2-5.4,2.8c-0.3,2.7,1.6,4,14.1,3.7c15-0.3,17.5-2.1,19-3.4l3.7-2.8c-9.8,1.3-10.5,1.6-16.1,1.8C178.3,149.7,168.5,150.1,168.1,149z"/><path fill="#000000" d="M206.9,168.3c-11.8,2.4-47.6,0.9-47.6,0.9s23.3,5.5,49.9,0.9c12.7-2.2,13.4-8.4,13.4-8.4S218.7,165.9,206.9,168.3z"/></g><g></g><g></g><g></g><g></g><g></g><g></g><g></g><g></g><g></g><g></g><g></g><g></g><g></g><g></g><g></g></g></g>
</svg>